<?xml version="1.0" encoding="utf-8"?>
<svg version="1.1" xmlns:xlink="http://www.w3.org/1999/xlink" width="40px" height="50px" xmlns="http://www.w3.org/2000/svg">
  <defs>
    <filter x="1335px" y="30px" width="40px" height="50px" filterUnits="userSpaceOnUse" id="filter3">
      <feOffset dx="1" dy="1" in="SourceAlpha" result="shadowOffsetInner" />
      <feGaussianBlur stdDeviation="2.5" in="shadowOffsetInner" result="shadowGaussian" />
      <feComposite in2="shadowGaussian" operator="atop" in="SourceAlpha" result="shadowComposite" />
      <feColorMatrix type="matrix" values="0 0 0 0 0  0 0 0 0 0  0 0 0 0 0  0 0 0 0.698039215686274 0  " in="shadowComposite" />
    </filter>
    <g id="widget4">
      <path d="M 1354 73.0369284683536  C 1348.2 63.4073405959099  1339.5 57.6295878724437  1339.5 48  C 1339.5 42.9857142857143  1342.4 34.5  1354 34.5  C 1365.6 34.5  1368.5 42.9857142857143  1368.5 48  C 1368.5 57.6295878724437  1359.8 63.4073405959099  1354 73.0369284683536  Z " fill-rule="nonzero" fill="#009dd9" stroke="none" />
      <path d="M 1354 74  C 1348 64  1339 58  1339 48  C 1339 42.8  1342 34  1354 34  C 1366 34  1369 42.8  1369 48  C 1369 58  1360 64  1354 74  Z M 1354 72.0738569367072  C 1359.6 62.8146811918198  1368 57.2591757448874  1368 48  C 1368 43.1714285714286  1365.2 35  1354 35  C 1342.8 35  1340 43.1714285714286  1340 48  C 1340 57.2591757448874  1348.4 62.8146811918198  1354 72.0738569367072  Z " fill-rule="nonzero" fill="#ffffff" stroke="none" />
    </g>
  </defs>
  <g transform="matrix(1 0 0 1 -1335 -30 )">
    <use xlink:href="#widget4" filter="url(#filter3)" />
    <use xlink:href="#widget4" />
  </g>
</svg>