<?xml version="1.0" encoding="utf-8"?>
<svg version="1.1" xmlns:xlink="http://www.w3.org/1999/xlink" width="59px" height="59px" xmlns="http://www.w3.org/2000/svg">
  <g transform="matrix(1 0 0 1 -180 -150 )">
    <path d="M 209.5 150  C 226.02 150  239 162.98  239 179.5  C 239 196.02  226.02 209  209.5 209  C 192.98 209  180 196.02  180 179.5  C 180 162.98  192.98 150  209.5 150  Z " fill-rule="nonzero" fill="#ffffff" stroke="none" />
    <path d="M 209.5 150.5  C 225.74 150.5  238.5 163.26  238.5 179.5  C 238.5 195.74  225.74 208.5  209.5 208.5  C 193.26 208.5  180.5 195.74  180.5 179.5  C 180.5 163.26  193.26 150.5  209.5 150.5  Z " stroke-width="1" stroke="#797979" fill="none" />
  </g>
</svg>