<?xml version="1.0" encoding="utf-8"?>
<svg version="1.1" xmlns:xlink="http://www.w3.org/1999/xlink" width="284px" height="169px" xmlns="http://www.w3.org/2000/svg">
  <defs>
    <mask fill="white" id="clip1">
      <path d="M 88 325  C 78.565 325  71 317.435  71 308  L 71 173  C 71 163.565  78.565 156  88 156  L 338 156  C 347.435 156  355 163.565  355 173  L 355 308  C 355 317.435  347.435 325  338 325  " fill-rule="evenodd" />
    </mask>
  </defs>
  <g transform="matrix(1 0 0 1 -71 -156 )">
    <path d="M 71 156  L 355 156  L 355 325  L 71 325  L 71 156  " fill-rule="nonzero" fill="#cccccc" stroke="none" mask="url(#clip1)" />
    <path d="M 83 168  L 343 168  L 343 313  L 83 313  L 83 168  " fill-rule="nonzero" fill="#ffffff" stroke="none" mask="url(#clip1)" />
    <path d="M 231.355 206.7  C 224.257 206.7  218.68 201.123  218.68 194.025  C 218.68 186.927  224.257 181.35  231.355 181.35  C 238.453 181.35  244.03 186.927  244.03 194.025  C 244.03 201.123  238.453 206.7  231.355 206.7  " fill-rule="nonzero" fill="#cccccc" stroke="none" mask="url(#clip1)" />
    <path d="M 87 309  L 87 233.65  L 150 199.4  L 238.2 260.085211267606  L 288.6 219.95  L 339 260.085211267606  L 339 309  L 87 309  " fill-rule="nonzero" fill="#169bd5" stroke="none" mask="url(#clip1)" />
  </g>
</svg>