<?xml version="1.0" encoding="utf-8"?>
<svg version="1.1" xmlns:xlink="http://www.w3.org/1999/xlink" width="38px" height="38px" xmlns="http://www.w3.org/2000/svg">
  <g transform="matrix(1 0 0 1 -301 -270 )">
    <path d="M 320 270  C 330.64 270  339 278.36  339 289  C 339 299.64  330.64 308  320 308  C 309.36 308  301 299.64  301 289  C 301 278.36  309.36 270  320 270  Z " fill-rule="nonzero" fill="#ffffff" stroke="none" />
    <path d="M 320 270.5  C 330.36 270.5  338.5 278.64  338.5 289  C 338.5 299.36  330.36 307.5  320 307.5  C 309.64 307.5  301.5 299.36  301.5 289  C 301.5 278.64  309.64 270.5  320 270.5  Z " stroke-width="1" stroke="#797979" fill="none" />
  </g>
</svg>