<?xml version="1.0" encoding="utf-8"?>
<svg version="1.1" xmlns:xlink="http://www.w3.org/1999/xlink" width="244px" height="92px" xmlns="http://www.w3.org/2000/svg">
  <defs>
    <mask fill="white" id="clip5">
      <path d="M 9 84.2253521126761  L 9 8.42253521126762  C 8.97058823529412 6.19711515013549  -0.989742352272813 2.05355656319982  1.02521008403363 0.647887323943653  C 2.95230245370882 -0.696489057576869  16.7883549503719 0.647887323943653  19.7352941176471 0.647887323943653  L 233.235294117647 0.647887323943653  C 239.263529411765 0.647887323943653  244 4.06873239436621  244 8.42253521126762  L 244 84.2253521126761  C 244 88.5791549295775  239.263529411765 92  233.235294117647 92  L 19.7352941176471 92  C 13.7070588235294 92  8.97058823529412 88.5791549295775  9 84.2253521126761  Z " fill-rule="evenodd" />
    </mask>
  </defs>
  <g transform="matrix(1 0 0 1 -94 -226 )">
    <path d="M 9 84.2253521126761  L 9 8.42253521126762  C 8.97058823529412 6.19711515013549  -0.989742352272813 2.05355656319982  1.02521008403363 0.647887323943653  C 2.95230245370882 -0.696489057576869  16.7883549503719 0.647887323943653  19.7352941176471 0.647887323943653  L 233.235294117647 0.647887323943653  C 239.263529411765 0.647887323943653  244 4.06873239436621  244 8.42253521126762  L 244 84.2253521126761  C 244 88.5791549295775  239.263529411765 92  233.235294117647 92  L 19.7352941176471 92  C 13.7070588235294 92  8.97058823529412 88.5791549295775  9 84.2253521126761  Z " fill-rule="nonzero" fill="#ffffff" stroke="none" transform="matrix(1 0 0 1 94 226 )" />
    <path d="M 9 84.2253521126761  L 9 8.42253521126762  C 8.97058823529412 6.19711515013549  -0.989742352272813 2.05355656319982  1.02521008403363 0.647887323943653  C 2.95230245370882 -0.696489057576869  16.7883549503719 0.647887323943653  19.7352941176471 0.647887323943653  L 233.235294117647 0.647887323943653  C 239.263529411765 0.647887323943653  244 4.06873239436621  244 8.42253521126762  L 244 84.2253521126761  C 244 88.5791549295775  239.263529411765 92  233.235294117647 92  L 19.7352941176471 92  C 13.7070588235294 92  8.97058823529412 88.5791549295775  9 84.2253521126761  Z " stroke-width="2" stroke="#797979" fill="none" transform="matrix(1 0 0 1 94 226 )" mask="url(#clip5)" />
  </g>
</svg>