<?xml version="1.0" encoding="utf-8"?>
<svg version="1.1" xmlns:xlink="http://www.w3.org/1999/xlink" width="244px" height="86px" xmlns="http://www.w3.org/2000/svg">
  <defs>
    <mask fill="white" id="clip6">
      <path d="M 9 78.7323943661972  L 9 7.87323943661971  C 8.97058823529412 5.79295546643101  -0.989742352272813 1.91962896125199  1.02521008403363 0.605633802816897  C 2.95230245370882 -0.651065858169659  16.7883549503719 0.605633802816897  19.7352941176471 0.605633802816897  L 233.235294117647 0.605633802816897  C 239.263529411765 0.605633802816897  244 3.80338028169012  244 7.87323943661971  L 244 78.7323943661972  C 244 82.8022535211268  239.263529411765 86  233.235294117647 86  L 19.7352941176471 86  C 13.7070588235294 86  8.97058823529412 82.8022535211268  9 78.7323943661972  Z " fill-rule="evenodd" />
    </mask>
  </defs>
  <g transform="matrix(1 0 0 1 -94 -387 )">
    <path d="M 9 78.7323943661972  L 9 7.87323943661971  C 8.97058823529412 5.79295546643101  -0.989742352272813 1.91962896125199  1.02521008403363 0.605633802816897  C 2.95230245370882 -0.651065858169659  16.7883549503719 0.605633802816897  19.7352941176471 0.605633802816897  L 233.235294117647 0.605633802816897  C 239.263529411765 0.605633802816897  244 3.80338028169012  244 7.87323943661971  L 244 78.7323943661972  C 244 82.8022535211268  239.263529411765 86  233.235294117647 86  L 19.7352941176471 86  C 13.7070588235294 86  8.97058823529412 82.8022535211268  9 78.7323943661972  Z " fill-rule="nonzero" fill="#ffffff" stroke="none" transform="matrix(1 0 0 1 94 387 )" />
    <path d="M 9 78.7323943661972  L 9 7.87323943661971  C 8.97058823529412 5.79295546643101  -0.989742352272813 1.91962896125199  1.02521008403363 0.605633802816897  C 2.95230245370882 -0.651065858169659  16.7883549503719 0.605633802816897  19.7352941176471 0.605633802816897  L 233.235294117647 0.605633802816897  C 239.263529411765 0.605633802816897  244 3.80338028169012  244 7.87323943661971  L 244 78.7323943661972  C 244 82.8022535211268  239.263529411765 86  233.235294117647 86  L 19.7352941176471 86  C 13.7070588235294 86  8.97058823529412 82.8022535211268  9 78.7323943661972  Z " stroke-width="2" stroke="#797979" fill="none" transform="matrix(1 0 0 1 94 387 )" mask="url(#clip6)" />
  </g>
</svg>